<?xml version="1.0" standalone="no"?>
<!DOCTYPE svg PUBLIC "-//W3C//DTD SVG 20010904//EN"
 "http://www.w3.org/TR/2001/REC-SVG-20010904/DTD/svg10.dtd">
<svg version="1.0" xmlns="http://www.w3.org/2000/svg"
 width="937.000000pt" height="352.000000pt" viewBox="0 0 937.000000 352.000000"
 preserveAspectRatio="xMidYMid meet">

<g transform="translate(0.000000,352.000000) scale(0.100000,-0.100000)"
fill="#000000" stroke="none">
<path d="M1834 1886 c-48 -21 -64 -51 -64 -124 0 -35 5 -72 10 -83 24 -44 114
-63 169 -35 36 19 51 55 51 125 0 70 -23 105 -78 121 -46 12 -50 12 -88 -4z
m84 -58 c12 -12 16 -95 6 -122 -4 -10 -18 -16 -40 -16 -28 0 -36 5 -44 26 -14
37 -12 76 6 102 17 24 53 29 72 10z"/>
<path d="M2453 1889 c-97 -28 -76 -138 30 -154 51 -8 81 -30 53 -41 -9 -3 -31
-3 -49 0 -63 14 -107 18 -107 11 0 -18 24 -46 50 -60 56 -29 158 -11 174 30
23 61 -3 96 -83 114 -48 10 -67 24 -57 40 9 14 53 14 61 1 3 -5 24 -10 46 -10
37 0 39 2 29 20 -23 43 -91 66 -147 49z"/>
<path d="M6733 1889 c-96 -28 -76 -137 28 -153 52 -8 74 -20 65 -35 -9 -14
-73 -15 -81 -1 -3 6 -24 10 -45 10 -37 0 -39 -2 -31 -22 26 -74 194 -75 222
-2 17 46 -7 76 -81 100 -39 13 -65 27 -65 35 0 15 21 15 103 3 24 -3 42 -2 42
3 0 15 -42 51 -73 62 -33 13 -40 13 -84 0z"/>
<path d="M7257 1894 c-4 -4 -7 -65 -7 -136 l0 -129 33 3 32 3 0 130 0 130 -25
3 c-14 2 -29 0 -33 -4z"/>
<path d="M7717 1894 c-4 -4 -7 -22 -7 -41 0 -26 -4 -33 -20 -33 -15 0 -20 -7
-20 -25 0 -18 5 -25 20 -25 17 0 20 -7 20 -45 0 -59 32 -95 85 -95 32 0 35 2
35 30 0 25 -4 30 -25 30 -22 0 -25 4 -25 40 0 36 3 40 25 40 20 0 25 5 25 25
0 20 -5 25 -24 25 -21 0 -25 5 -28 38 -3 31 -7 37 -28 40 -14 2 -29 0 -33 -4z"/>
<path d="M7910 1875 c0 -22 4 -25 35 -25 31 0 35 3 35 25 0 22 -4 25 -35 25
-31 0 -35 -3 -35 -25z"/>
<path d="M880 1760 l0 -130 95 0 95 0 0 30 0 30 -65 0 c-58 0 -65 2 -65 20 0
18 7 20 60 20 l60 0 0 30 0 30 -61 0 c-57 0 -60 1 -57 23 3 20 9 22 66 25 58
3 62 4 62 27 0 25 -1 25 -95 25 l-95 0 0 -130z"/>
<path d="M1162 1763 l3 -128 33 -3 c32 -3 32 -3 32 42 0 39 3 46 19 46 13 0
28 -15 43 -42 19 -35 29 -44 56 -46 38 -4 40 6 10 59 l-22 39 22 23 c30 32 29
81 -3 112 -22 23 -32 25 -110 25 l-86 0 3 -127z m143 47 c0 -22 -5 -25 -37
-28 -36 -3 -38 -2 -38 28 0 30 2 31 38 28 32 -3 37 -6 37 -28z"/>
<path d="M1470 1760 l0 -130 35 0 c35 0 35 0 35 45 0 38 3 45 20 45 14 0 27
-14 42 -45 19 -40 26 -45 55 -45 18 0 33 2 33 5 0 2 -10 24 -22 49 l-21 44 21
27 c29 37 28 80 -3 110 -22 23 -32 25 -110 25 l-85 0 0 -130z m138 71 c8 -5
12 -17 10 -27 -2 -14 -13 -20 -41 -22 -35 -3 -37 -2 -37 27 0 27 3 31 28 31
15 0 33 -4 40 -9z"/>
<path d="M2090 1760 l0 -130 35 0 c35 0 35 0 35 45 0 38 3 45 20 45 14 0 27
-14 42 -45 19 -40 26 -45 55 -45 18 0 33 2 33 5 0 2 -10 24 -22 49 l-21 44 21
27 c29 37 28 80 -3 110 -22 23 -32 25 -110 25 l-85 0 0 -130z m138 71 c8 -5
12 -17 10 -27 -2 -14 -13 -20 -41 -22 -35 -3 -37 -2 -37 27 0 27 3 31 28 31
15 0 33 -4 40 -9z"/>
<path d="M3644 1847 c-2 -7 -3 -58 -2 -113 l3 -99 73 -3 c59 -2 72 0 72 13 0
12 -13 15 -60 15 l-60 0 0 35 0 35 55 0 c42 0 55 3 55 15 0 12 -13 15 -55 15
l-55 0 0 35 0 35 60 0 c47 0 60 3 60 15 0 20 -138 22 -146 2z"/>
<path d="M4790 1830 c0 -23 -4 -30 -20 -30 -11 0 -20 -4 -20 -9 0 -5 9 -11 20
-14 17 -4 20 -14 20 -66 0 -64 12 -81 60 -81 28 0 21 24 -8 28 -25 4 -35 32
-30 83 2 26 8 35 26 37 30 5 28 22 -3 22 -21 0 -25 5 -25 30 0 17 -4 30 -10
30 -5 0 -10 -13 -10 -30z"/>
<path d="M4940 1845 c0 -8 7 -15 15 -15 8 0 15 7 15 15 0 8 -7 15 -15 15 -8 0
-15 -7 -15 -15z"/>
<path d="M7023 1815 c-39 -17 -53 -42 -53 -93 0 -33 6 -45 31 -66 66 -56 169
-16 169 66 0 52 -14 77 -55 94 -42 17 -51 17 -92 -1z m77 -60 c26 -31 -8 -83
-45 -69 -37 15 -25 84 15 84 10 0 23 -7 30 -15z"/>
<path d="M8113 1815 c-39 -17 -53 -42 -53 -93 0 -33 6 -45 31 -66 66 -56 169
-16 169 66 0 52 -14 77 -55 94 -42 17 -51 17 -92 -1z m77 -60 c26 -31 -8 -83
-45 -69 -37 15 -25 84 15 84 10 0 23 -7 30 -15z"/>
<path d="M8447 1824 c-4 -4 -30 -6 -57 -5 l-51 1 3 -92 3 -93 33 -3 32 -3 0
66 c0 52 4 67 16 72 33 12 49 -11 52 -76 3 -60 3 -61 32 -61 l30 0 0 78 c0 62
-4 82 -17 95 -21 18 -66 31 -76 21z"/>
<path d="M7402 1743 c4 -64 9 -80 28 -95 25 -20 80 -24 98 -6 9 9 12 9 12 0 0
-7 13 -12 30 -12 l30 0 0 95 0 95 -35 0 -35 0 0 -64 c0 -67 -9 -81 -42 -64
-14 7 -18 22 -18 68 l0 60 -36 0 -37 0 5 -77z"/>
<path d="M7910 1724 l0 -95 33 3 32 3 3 93 3 92 -36 0 -35 0 0 -96z"/>
<path d="M3871 1783 c7 -10 22 -28 32 -40 19 -22 19 -22 -12 -61 -17 -22 -31
-43 -31 -46 0 -16 26 -3 51 27 l28 32 26 -32 c31 -39 68 -48 41 -10 -53 72
-51 63 -16 107 24 31 28 40 15 40 -9 0 -28 -13 -41 -30 l-26 -30 -25 30 c-27
33 -66 44 -42 13z"/>
<path d="M4106 1778 c-23 -33 -21 -103 4 -128 36 -36 120 -17 120 28 0 16 -17
15 -27 -2 -15 -25 -50 -29 -72 -7 -25 25 -27 58 -5 89 19 27 48 28 74 2 25
-25 30 -25 30 0 0 43 -97 57 -124 18z"/>
<path d="M4330 1780 c-14 -14 -20 -33 -20 -65 0 -56 25 -85 74 -85 33 0 66 21
66 41 0 11 -13 12 -25 0 -23 -21 -54 -22 -75 -1 -30 30 -17 40 52 40 l60 0 -7
28 c-3 15 -14 35 -22 45 -22 23 -78 22 -103 -3z m84 -16 c26 -26 18 -34 -34
-34 -54 0 -59 4 -33 32 20 22 46 23 67 2z"/>
<path d="M4540 1683 c0 -69 4 -113 10 -113 6 0 10 16 10 35 l0 35 43 -6 c39
-6 46 -3 65 21 29 36 29 94 1 123 -16 18 -29 22 -75 20 l-54 -2 0 -113z m104
81 c24 -24 20 -80 -6 -98 -29 -20 -34 -20 -58 4 -24 24 -26 57 -4 88 18 26 46
28 68 6z"/>
<path d="M4940 1715 c0 -69 3 -85 15 -85 12 0 15 16 15 85 0 69 -3 85 -15 85
-12 0 -15 -16 -15 -85z"/>
<path d="M5070 1780 c-29 -29 -28 -99 3 -128 30 -28 80 -29 107 -2 14 14 20
33 20 65 0 57 -25 85 -75 85 -22 0 -43 -8 -55 -20z m91 -16 c16 -19 17 -80 2
-95 -16 -16 -63 -14 -74 2 -16 25 -10 87 9 98 25 15 48 13 63 -5z"/>
<path d="M5282 1717 c2 -53 7 -82 16 -85 9 -3 12 13 12 56 0 64 15 92 50 92
30 0 50 -39 50 -97 0 -29 5 -53 10 -53 6 0 10 29 10 68 0 88 -13 102 -93 100
l-58 -2 3 -79z"/>
<path d="M5532 1788 c-16 -16 -15 -55 1 -65 6 -4 28 -13 47 -18 19 -6 36 -18
38 -27 4 -19 -34 -31 -59 -17 -10 5 -26 9 -36 9 -16 -1 -15 -3 6 -20 29 -25
83 -26 104 -2 33 36 16 67 -41 78 -41 8 -57 27 -37 44 14 12 29 11 68 -5 12
-5 17 -3 17 8 0 8 -7 18 -16 21 -26 10 -79 7 -92 -6z"/>
</g>
</svg>
